# xmcd
#
# Track frame offsets:
#	150
#	17107
#	53175
#	71894
#	94077
#	122187
#	141864
#	156265
#	168083
#	186354
#	200556
#	215272
#	236539
#	256847
#	279973
#	300216
#	324611
#
# Disc length: 4784 seconds
# Revision: 3
# Processed by: cddbd v1.5.2PL0 Copyright (c) Steve Scherf et al.
# Submitted via: dBpowerAMP V12.0
#
DISCID=f012ae11
DTITLE=Various Artist - Alligator Records 45th anniversary collection CD2
DYEAR=2016
DGENRE=Blues
TTITLE0=James Cotton and Joe Bonnamassa - Cotton mouth man
TTITLE1=Albert Collins - If trouble was money
TTITLE2=JJ Grey and Mofro - 99 shades of crazy
TTITLE3=Jarekus Singleton - I refuse to lose
TTITLE4=Michael Burks - Empty promises
TTITLE5=Roomful of Blues - Turn it on, turn it up
TTITLE6=Lazy Lester - Raining in my heart
TTITLE7=Johnny Winter - Shake your moneymaker
TTITLE8=Curtis Salgado - Walk a mile in my blues
TTITLE9=The Kentucky Weadhunters with Johnnie Johnson - Stumblin'
TTITLE10=Billy Boy Arnold - I ain't got you
TTITLE11=Ann Rabson - Gonna stop you from giving me the blues
TTITLE12=Smokin' Joe Kubek and Bnois King - Freezer burn
TTITLE13=Guitar Shorty - I'm gonna leave you
TTITLE14=A.C. Reed and Bonnie Raitt - She's fine
TTITLE15=Luther Allison - Will it ever change
TTITLE16=The Holmes Brothers - Amazing grace
EXTD=
EXTT0=
EXTT1=
EXTT2=
EXTT3=
EXTT4=
EXTT5=
EXTT6=
EXTT7=
EXTT8=
EXTT9=
EXTT10=
EXTT11=
EXTT12=
EXTT13=
EXTT14=
EXTT15=
EXTT16=
PLAYORDER=
